/* XPM */
static char * C:\Users\ETi\Desktop\Git\arc_grey_theme\common\xfwm4\hide_pressed_xpm[] = {
"28 28 16 1",
" 	g None",
".	g #EFEFEF",
"+	g #E8E8E8",
"@	g #E0E0E0",
"#	g #B8B8B8",
"$	g #9C9C9C",
"%	g #8F8F8F",
"&	g #9D9D9D",
"*	g #C8C8C8",
"=	g #909090",
"-	g #8C8C8C",
";	g #C9C9C9",
">	g #DFDFDF",
",	g #FFFFFF",
"'	g #B9B9B9",
")	g #CACACA",
"............................",
"++++++++++++++++++++++++++++",
"++++++++++++++++++++++++++++",
"++++++++++++++++++++++++++++",
"++++++++++++++++++++++++++++",
"++++++++++++++++++++++++++++",
"++++++++++++++++++++++++++++",
"++++++++++@#$%%&#@++++++++++",
"+++++++++*=------=;+++++++++",
"++++++++*----------;++++++++",
"+++++++@=----------=>+++++++",
"+++++++#------------#+++++++",
"+++++++$------------&+++++++",
"+++++++%---,,,,,,---=+++++++",
"+++++++=---,,,,,,---=+++++++",
"+++++++$------------&+++++++",
"+++++++#------------'+++++++",
"+++++++@=----------=@+++++++",
"++++++++;----------)++++++++",
"+++++++++;=------=)+++++++++",
"++++++++++>#&%%&'@++++++++++",
"++++++++++++++++++++++++++++",
"++++++++++++++++++++++++++++",
"++++++++++++++++++++++++++++",
"++++++++++++++++++++++++++++",
"++++++++++++++++++++++++++++",
"++++++++++++++++++++++++++++",
"++++++++++++++++++++++++++++"};
