/* XPM */
static char * C:\Users\ETi\Desktop\Git\arc_grey_theme\common\xfwm4\maximize_active_xpm[] = {
"28 28 12 1",
" 	g None",
".	g #EFEFEF",
"+	g #E8E8E8",
"@	g #E6E6E6",
"#	g #AFAFAF",
"$	g #949494",
"%	g #A5A5A5",
"&	g #E7E7E7",
"*	g #ADADAD",
"=	g #E4E4E4",
"-	g #B0B0B0",
";	g #A4A4A4",
"............................",
"++++++++++++++++++++++++++++",
"++++++++++++++++++++++++++++",
"++++++++++++++++++++++++++++",
"++++++++++++++++++++++++++++",
"++++++++++++++++++++++++++++",
"++++++++++++++++++++++++++++",
"++++++++++++++++++++++++++++",
"++++++++++++++++++++++++++++",
"++++++++++++++++++++++++++++",
"++++++++++++++++++++++++++++",
"++++++++++++@#$$%+++++++++++",
"+++++++++++@+@#$$+++++++++++",
"++++++++++&*=+&-$+++++++++++",
"++++++++++&$*=+&-+++++++++++",
"++++++++++&$$#@+@+++++++++++",
"+++++++++++;$$#@++++++++++++",
"++++++++++++++++++++++++++++",
"++++++++++++++++++++++++++++",
"++++++++++++++++++++++++++++",
"++++++++++++++++++++++++++++",
"++++++++++++++++++++++++++++",
"++++++++++++++++++++++++++++",
"++++++++++++++++++++++++++++",
"++++++++++++++++++++++++++++",
"++++++++++++++++++++++++++++",
"++++++++++++++++++++++++++++",
"++++++++++++++++++++++++++++"};
